<svg width="129" height="160" viewBox="0 0 129 160" fill="none" xmlns="http://www.w3.org/2000/svg">
<rect width="129" height="160" rx="23" fill="#D7AB32"/>
<path d="M64.6496 81.6975C71.5305 81.6975 77.1086 76.1195 77.1086 69.2386C77.1086 62.3577 71.5305 56.7796 64.6496 56.7796C57.7687 56.7796 52.1907 62.3577 52.1907 69.2386C52.1907 76.1195 57.7687 81.6975 64.6496 81.6975Z" fill="#A67E2D"/>
<path d="M85.8694 69.3308C85.8694 71.4215 81.764 72.8312 81.1519 74.716C80.5187 76.6694 82.9882 80.2226 81.8062 81.8487C80.6137 83.4907 76.4608 82.2341 74.8197 83.4273C73.1945 84.61 73.1153 88.9551 71.1629 89.5886C69.2791 90.2011 66.6723 86.7535 64.5827 86.7535C62.4931 86.7535 59.8863 90.2011 58.0025 89.5886C56.0501 88.9551 55.9709 84.61 54.3457 83.4273C52.7046 82.2341 48.5517 83.4907 47.3592 81.8487C46.1772 80.2226 48.6467 76.6694 48.0135 74.716C47.4014 72.8312 43.296 71.4162 43.296 69.3308C43.296 67.2453 47.4014 65.8304 48.0135 63.9456C48.6467 61.9921 46.1772 58.4389 47.3592 56.8128C48.5517 55.1709 52.7046 56.4274 54.3457 55.2342C55.9709 54.0516 56.0501 49.7065 58.0025 49.0729C59.8863 48.4605 62.4931 51.9081 64.5827 51.9081C66.6723 51.9081 69.2791 48.4605 71.1629 49.0729C73.1153 49.7065 73.1945 54.0516 74.8197 55.2342C76.4608 56.4274 80.6137 55.1709 81.8062 56.8128C82.9882 58.4389 80.5187 61.9921 81.1519 63.9456C81.7587 65.8251 85.8694 67.24 85.8694 69.3308Z" stroke="white" stroke-width="2.5" stroke-miterlimit="10"/>
<path d="M64.2502 90.4809L73.1733 110.876C73.7696 112.238 75.6165 112.391 76.0756 111.119L77.5478 106.225C77.8328 105.427 78.7509 105.116 79.5741 105.538L84.3813 108.257C85.6952 108.928 86.9405 107.74 86.3495 106.383L75.9806 82.6829" stroke="white" stroke-width="2.5" stroke-miterlimit="10"/>
<path d="M65.7384 87.0808L55.3272 110.876C54.731 112.238 52.8841 112.391 52.425 111.119L50.9528 106.225C50.6678 105.427 49.7497 105.116 48.9265 105.538L44.1193 108.257C42.8054 108.928 41.56 107.74 42.151 106.383L52.5253 82.6829" stroke="white" stroke-width="2.5" stroke-miterlimit="10"/>
</svg>
