<svg width="129" height="160" viewBox="0 0 129 160" fill="none" xmlns="http://www.w3.org/2000/svg">
<rect width="129" height="160" rx="23" fill="#D7AB32"/>
<path d="M90.1213 69.3269C90.1213 54.7385 77.9173 43.0312 63.27 44.0634C50.969 44.9258 40.9822 54.9606 40.0708 67.3931C39.2693 78.3426 45.3518 87.9462 54.4014 92.2516C55.7588 92.8983 56.625 94.2768 56.625 95.7925V101.796V106.33C56.625 110.708 59.7988 114.549 64.1038 115.032C69.191 115.601 73.5024 111.59 73.5024 106.559V95.7925C73.5024 94.2768 74.3751 92.8983 75.7325 92.2516C84.2326 88.1945 90.1213 79.4597 90.1213 69.3269Z" stroke="white" stroke-width="2.5" stroke-miterlimit="10"/>
<path d="M73.4961 101.45H56.6187" stroke="white" stroke-width="2.5" stroke-miterlimit="10"/>
<path d="M65.0603 70.9535C60.1542 70.9535 56.1594 74.991 56.1594 79.9496V85.1892C58.7644 86.7571 61.8089 87.6652 65.0603 87.6652C68.3117 87.6652 71.3562 86.7636 73.9612 85.1892V79.9496C73.9612 74.991 69.9665 70.9535 65.0603 70.9535Z" fill="#A67E2D"/>
<path d="M51.7705 79.9496C51.7705 72.5411 57.7303 66.5175 65.0604 66.5175C72.3906 66.5175 78.3503 72.5411 78.3503 79.9496V81.4326C80.923 78.3621 82.4743 74.3965 82.4743 70.065C82.4743 60.3438 74.6788 52.4648 65.0604 52.4648C55.442 52.4648 47.6465 60.3438 47.6465 70.065C47.6465 74.403 49.1978 78.3686 51.7705 81.4326V79.9496Z" fill="#A67E2D"/>
</svg>
