<svg width="129" height="160" viewBox="0 0 129 160" fill="none" xmlns="http://www.w3.org/2000/svg">
<rect width="129" height="160" rx="23" fill="#D7AB32"/>
<path d="M89.1617 112.968C92.2443 112.968 94.4919 110.079 93.7598 107.093C91.1176 96.334 81.3723 88.3447 69.7569 88.3447C58.1414 88.3447 48.3904 96.334 45.7539 107.098C45.0219 110.084 47.2695 112.968 50.352 112.968H89.1617Z" stroke="white" stroke-width="2.5" stroke-miterlimit="10"/>
<path d="M69.7568 82.9653C77.151 82.9653 83.1451 76.9928 83.1451 69.6252C83.1451 62.2577 77.151 56.2852 69.7568 56.2852C62.3626 56.2852 56.3684 62.2577 56.3684 69.6252C56.3684 76.9928 62.3626 82.9653 69.7568 82.9653Z" stroke="white" stroke-width="2.5" stroke-miterlimit="10"/>
<path d="M41.413 105.218C43.6205 96.226 49.3053 89.1656 59.2851 85.8833C48.0414 86.2594 37.7185 93.411 35.1392 103.913C34.4071 106.899 36.6547 109.783 39.7373 109.783H42.2422C41.373 108.506 41.0069 106.876 41.413 105.218Z" fill="#A67E2D"/>
<path d="M52.3592 66.9701C52.3592 58.7188 59.0734 52.0288 67.3546 52.0288C70.2828 52.0288 73.0165 52.8665 75.3213 54.3139C72.7763 50.513 68.4298 48 63.4942 48C55.6591 48 49.3052 54.331 49.3052 62.1436C49.3052 65.8988 50.7807 69.3122 53.177 71.848C52.6508 70.3151 52.3592 68.6797 52.3592 66.9701Z" fill="#A67E2D"/>
</svg>
