<svg width="22" height="22" viewBox="0 0 22 22" fill="none" xmlns="http://www.w3.org/2000/svg">
<path d="M16.5002 6.56326C16.4452 6.55409 16.3811 6.55409 16.3261 6.56326C15.0611 6.51742 14.0527 5.48159 14.0527 4.19825C14.0527 2.88742 15.1069 1.83325 16.4177 1.83325C17.7286 1.83325 18.7827 2.89659 18.7827 4.19825C18.7736 5.48159 17.7652 6.51742 16.5002 6.56326Z" stroke="white" stroke-width="1.38684" stroke-linecap="round" stroke-linejoin="round"/>
<path d="M15.5558 13.2365C16.8117 13.4473 18.1958 13.2273 19.1675 12.5765C20.46 11.7148 20.46 10.3032 19.1675 9.44149C18.1867 8.79066 16.7842 8.57065 15.5283 8.79065" stroke="white" stroke-width="1.38684" stroke-linecap="round" stroke-linejoin="round"/>
<path d="M5.47293 6.56326C5.52793 6.55409 5.5921 6.55409 5.6471 6.56326C6.9121 6.51742 7.92043 5.48159 7.92043 4.19825C7.92043 2.88742 6.86626 1.83325 5.55543 1.83325C4.2446 1.83325 3.19043 2.89659 3.19043 4.19825C3.1996 5.48159 4.20793 6.51742 5.47293 6.56326Z" stroke="white" stroke-width="1.38684" stroke-linecap="round" stroke-linejoin="round"/>
<path d="M6.41698 13.2365C5.16114 13.4473 3.77698 13.2273 2.80531 12.5765C1.51281 11.7148 1.51281 10.3032 2.80531 9.44149C3.78615 8.79066 5.18864 8.57065 6.44448 8.79065" stroke="white" stroke-width="1.38684" stroke-linecap="round" stroke-linejoin="round"/>
<path d="M11.0002 13.4109C10.9452 13.4017 10.8811 13.4017 10.8261 13.4109C9.56107 13.3651 8.55273 12.3292 8.55273 11.0459C8.55273 9.73508 9.6069 8.68091 10.9177 8.68091C12.2286 8.68091 13.2827 9.74424 13.2827 11.0459C13.2736 12.3292 12.2652 13.3742 11.0002 13.4109Z" stroke="white" stroke-width="1.38684" stroke-linecap="round" stroke-linejoin="round"/>
<path d="M8.33266 16.2983C7.04016 17.16 7.04016 18.5717 8.33266 19.4333C9.79932 20.4142 12.201 20.4142 13.6677 19.4333C14.9602 18.5717 14.9602 17.16 13.6677 16.2983C12.2102 15.3267 9.79932 15.3267 8.33266 16.2983Z" stroke="white" stroke-width="1.38684" stroke-linecap="round" stroke-linejoin="round"/>
</svg>
