<svg width="128" height="186" viewBox="0 0 128 186" fill="none" xmlns="http://www.w3.org/2000/svg">
<path d="M24.8545 150.047C25.038 149.868 25.1887 149.666 25.3012 149.446C25.4724 149.125 25.6686 148.967 25.8857 148.967C26.1947 148.967 26.3825 149.192 26.4535 149.634L27.0547 153.795L27.1215 154.297C27.1289 154.352 27.122 154.408 27.1013 154.46C27.0806 154.513 27.0467 154.561 27.0021 154.6C26.9575 154.64 26.9034 154.67 26.8438 154.688C26.7842 154.706 26.7207 154.712 26.6581 154.706C26.5685 154.713 26.4781 154.704 26.3926 154.68C26.3071 154.655 26.2283 154.615 26.1613 154.562C25.9287 154.269 25.7327 153.955 25.5767 153.626C25.0074 152.644 24.1674 151.805 23.1344 151.186C22.1522 150.514 20.953 150.135 19.7108 150.106C18.699 150.074 17.7099 150.375 16.9344 150.95C16.5803 151.207 16.2965 151.532 16.1042 151.899C15.912 152.267 15.8161 152.668 15.8239 153.073C15.8344 153.428 15.932 153.776 16.1101 154.094C16.2881 154.413 16.5423 154.693 16.8551 154.916C17.5454 155.466 18.8703 155.983 20.8297 156.468C23.8914 157.239 25.9789 158.191 27.0923 159.324C28.1322 160.369 28.7065 161.711 28.708 163.102C28.7571 164.373 28.3414 165.624 27.5223 166.67C26.772 167.598 25.8036 168.373 24.6833 168.94C23.3777 169.533 21.9208 169.817 20.454 169.766C19.4311 169.761 18.4134 169.637 17.4271 169.397C16.3095 169.129 15.2266 168.758 14.1956 168.292C13.9409 168.562 13.7429 168.87 13.6111 169.202C13.4274 169.619 13.1936 169.825 12.9222 169.825C12.6509 169.825 12.463 169.552 12.4045 169.007L11.9077 163.496C11.8827 163.253 11.8743 163.102 11.8743 163.039C11.8657 162.979 11.8732 162.917 11.8962 162.859C11.9192 162.802 11.9571 162.749 12.0069 162.707C12.0567 162.664 12.1171 162.633 12.1832 162.614C12.2493 162.596 12.3194 162.591 12.3878 162.601C12.6425 162.601 12.8805 162.851 13.1101 163.36C13.7443 164.79 14.7181 166.083 15.9658 167.153C16.5129 167.638 17.1638 168.022 17.8805 168.282C18.5973 168.543 19.3657 168.675 20.1409 168.671C20.7395 168.695 21.3375 168.613 21.9 168.431C22.4626 168.248 22.9787 167.969 23.4183 167.61C23.8063 167.307 24.1182 166.936 24.3339 166.52C24.5497 166.104 24.6644 165.653 24.6708 165.196C24.6765 164.762 24.5739 164.333 24.3704 163.939C24.1669 163.545 23.8675 163.195 23.4934 162.914C22.7252 162.3 21.3447 161.708 19.3518 161.137C17.8501 160.742 16.4013 160.205 15.0306 159.534C14.0803 159.026 13.2973 158.306 12.7594 157.448C12.2188 156.628 11.9309 155.698 11.9244 154.75C11.9152 153.98 12.0974 153.219 12.4581 152.518C12.8188 151.817 13.3492 151.195 14.0119 150.695C15.4036 149.582 17.2977 149.026 19.6941 149.026C20.9773 149.028 22.6974 149.369 24.8545 150.047Z" fill="url(#paint0_linear_22_141)"/>
<path d="M59.8496 148.816H61.0228C62.5341 151.711 64.6704 156.266 67.4314 162.48C68.7062 165.333 69.583 167.063 70.0617 167.67C70.3329 167.986 70.677 168.248 71.0714 168.439C71.4658 168.63 71.9014 168.744 72.3496 168.775C72.692 168.816 72.8632 168.949 72.8632 169.17C72.8632 169.483 72.6419 169.641 72.1952 169.641C71.953 169.641 71.3268 169.605 70.3206 169.535C69.1265 169.444 68.1231 169.398 67.3104 169.398C66.5213 169.398 65.4859 169.439 64.2167 169.52C63.2648 169.583 62.6385 169.612 62.3421 169.612C61.8119 169.612 61.5488 169.465 61.5488 169.17C61.5488 168.949 61.7325 168.823 62.0999 168.801C63.5111 168.691 64.2167 168.199 64.2167 167.327C64.1233 166.56 63.9155 165.808 63.5988 165.089C63.2207 164.085 62.7788 163.101 62.2753 162.141C61.5321 162.141 60.9518 162.141 60.5343 162.141C58.2241 162.141 56.4261 162.141 55.1402 162.141C54.1493 164.529 53.6552 166.112 53.658 166.888C53.6454 167.141 53.7067 167.393 53.8361 167.619C53.9656 167.845 54.1587 168.037 54.397 168.178C54.867 168.479 55.4186 168.664 55.996 168.716C56.4135 168.757 56.6473 168.912 56.6473 169.184C56.6473 169.457 56.4135 169.597 55.9459 169.597C55.7622 169.597 55.2779 169.571 54.5014 169.52C53.491 169.45 52.7562 169.413 52.297 169.413C51.434 169.411 50.5719 169.462 49.7168 169.564C49.5476 169.593 49.3757 169.609 49.2033 169.612C48.7858 169.612 48.5687 169.457 48.5687 169.155C48.5654 169.049 48.606 168.946 48.683 168.866C48.7599 168.785 48.8678 168.732 48.9862 168.716C49.5641 168.589 50.1123 168.373 50.6061 168.079C51.1294 167.675 51.5554 167.182 51.8586 166.63C52.5033 165.522 53.0478 164.371 53.4869 163.188C54.9119 159.639 57.0328 154.849 59.8496 148.816ZM58.6347 154.113L55.6495 160.902L61.7284 160.825C61.4069 160.029 60.9184 158.941 60.2504 157.559C59.5295 156.063 58.9909 154.914 58.6347 154.113Z" fill="url(#paint1_linear_22_141)"/>
<path d="M100.552 158.912C102.118 157.733 103.572 156.443 104.902 155.056C106.542 153.395 107.491 152.398 107.75 152.064C107.96 151.832 108.093 151.554 108.134 151.26C108.134 150.744 107.604 150.39 106.535 150.199C106.076 150.117 105.846 149.948 105.846 149.697C105.846 149.447 106.067 149.24 106.501 149.24C106.652 149.24 106.844 149.24 107.086 149.27C108.347 149.402 109.616 149.459 110.885 149.439C111.303 149.439 111.983 149.41 112.898 149.354C113.812 149.299 114.355 149.288 114.651 149.288C115.144 149.288 115.39 149.439 115.39 149.741C115.39 150.007 115.156 150.162 114.684 150.213C114.001 150.28 113.333 150.44 112.705 150.689C111.846 151.057 111.042 151.519 110.313 152.064C109.285 152.805 108.319 153.612 107.424 154.478L104.042 157.773L105.211 157.755C106.371 157.715 107.519 157.971 108.518 158.492C109.332 158.918 109.986 159.546 110.401 160.298C110.947 161.503 111.369 162.749 111.662 164.02C111.899 164.963 112.203 165.891 112.572 166.8C112.815 167.327 113.202 167.793 113.699 168.156C114.165 168.519 114.75 168.74 115.369 168.786C115.887 168.827 116.146 168.956 116.146 169.155C116.146 169.461 115.899 169.612 115.407 169.612C115.269 169.612 115.069 169.612 114.801 169.582C113.774 169.478 112.741 169.426 111.708 169.428C110.576 169.428 109.445 169.49 108.322 169.612C107.932 169.081 107.633 168.502 107.432 167.894C107.232 167.29 106.926 165.828 106.514 163.508C106.205 161.788 105.778 160.637 105.232 160.054C105.026 159.791 104.754 159.574 104.437 159.42C104.119 159.266 103.766 159.179 103.404 159.166C102.569 159.166 101.637 159.627 100.548 160.541L100.514 164.47C100.514 166.276 100.627 167.419 100.857 167.85C101.086 168.281 101.692 168.587 102.731 168.687C103.27 168.746 103.541 168.878 103.541 169.081C103.541 169.45 103.299 169.612 102.819 169.612C102.589 169.612 102.251 169.59 101.804 169.549C100.432 169.43 99.0541 169.374 97.6754 169.383C96.492 169.392 95.31 169.458 94.135 169.582C93.6757 169.623 93.3417 169.641 93.1371 169.641C93.059 169.652 92.9791 169.647 92.9038 169.626C92.8284 169.605 92.7596 169.568 92.7029 169.52C92.6462 169.471 92.6031 169.411 92.577 169.346C92.5509 169.28 92.5426 169.209 92.5526 169.14C92.5446 169.075 92.558 169.009 92.5913 168.95C92.6247 168.891 92.6764 168.842 92.7405 168.808C93.0213 168.715 93.3174 168.663 93.6172 168.654C94.0506 168.635 94.4671 168.5 94.8113 168.267C95.1038 167.99 95.2907 167.639 95.3457 167.264C95.5121 166.135 95.5985 164.997 95.6046 163.858C95.6686 162.057 95.6992 160.063 95.6964 157.876C95.6964 155.665 95.6672 154.113 95.6046 153.199C95.5893 152.516 95.4584 151.839 95.2163 151.19C95.1063 150.863 94.8811 150.575 94.5733 150.368C94.115 150.209 93.6294 150.119 93.1371 150.103C92.7697 150.084 92.586 149.941 92.586 149.679C92.586 149.417 92.8699 149.207 93.4461 149.207C93.8636 149.207 94.4773 149.237 95.304 149.299C96.3227 149.38 97.1577 149.421 97.809 149.421C98.2098 149.421 99.351 149.379 101.233 149.295C101.779 149.277 102.205 149.27 102.485 149.27C102.923 149.27 103.14 149.406 103.14 149.679C103.14 149.952 102.915 150.125 102.468 150.165C101.7 150.224 101.216 150.387 100.974 150.648C100.711 151.012 100.578 151.437 100.594 151.868C100.591 152.433 100.577 154.781 100.552 158.912Z" fill="url(#paint2_linear_22_141)"/>
<path d="M108.075 20.0332L109.353 23.4979H113.482L110.142 25.6394L111.415 29.1078L108.075 26.9663L104.735 29.1078L106.013 25.6394L102.669 23.4979H106.802L108.075 20.0332Z" fill="url(#paint3_linear_22_141)"/>
<path d="M97.0741 10.9546L98.3517 14.423H102.481L99.1408 16.5645L100.414 20.0328L97.0741 17.8877L93.7341 20.0328L95.0075 16.5645L91.6675 14.423H95.7966L97.0741 10.9546Z" fill="url(#paint4_linear_22_141)"/>
<path d="M82.5617 3.79248L83.8393 7.25718H87.9684L84.6242 9.40235L85.9018 12.8671L82.5617 10.7256L79.2217 12.8671L80.4993 9.40235L77.1592 7.25718H81.2842L82.5617 3.79248Z" fill="url(#paint5_linear_22_141)"/>
<path d="M19.9238 20.0332L18.6504 23.4979H14.5213L17.8613 25.6394L16.5838 29.1078L19.9238 26.9663L23.2638 29.1078L21.9904 25.6394L25.3305 23.4979H21.2013L19.9238 20.0332Z" fill="url(#paint6_linear_22_141)"/>
<path d="M30.925 10.9546L29.6516 14.423H25.5225L28.8625 16.5645L27.585 20.0328L30.925 17.8877L34.2692 20.0328L32.9916 16.5645L36.3317 14.423H32.2026L30.925 10.9546Z" fill="url(#paint7_linear_22_141)"/>
<path d="M45.4374 3.79248L44.164 7.25718H40.0349L43.3749 9.40235L42.0973 12.8671L45.4374 10.7256L48.7774 12.8671L47.504 9.40235L50.844 7.25718H46.7149L45.4374 3.79248Z" fill="url(#paint8_linear_22_141)"/>
<path d="M64.5173 0L65.7948 3.46839H69.9239L66.5797 5.60987L67.8573 9.07457L64.5173 6.93309L61.1772 9.07457L62.4548 5.60987L59.1106 3.46839H63.2397L64.5173 0Z" fill="url(#paint9_linear_22_141)"/>
<path d="M12.1457 185.594V176.747H13.8157V185.594H12.1457ZM13.7072 182.225V181.042H16.066C16.6001 181.07 17.1283 180.93 17.5565 180.647C17.7359 180.511 17.8774 180.341 17.9701 180.149C18.0628 179.958 18.1041 179.75 18.0909 179.541C18.1064 179.319 18.0667 179.096 17.9743 178.888C17.882 178.681 17.7394 178.494 17.5565 178.34C17.1367 178.04 16.6049 177.89 16.066 177.92H13.7364L13.5443 176.736H16.0493C17.0274 176.682 17.9966 176.928 18.7923 177.433C19.1166 177.675 19.3728 177.98 19.5409 178.324C19.709 178.668 19.7843 179.042 19.7609 179.416C19.7863 179.803 19.7124 180.191 19.5447 180.549C19.377 180.908 19.1198 181.229 18.7923 181.488C18.0088 182.018 17.0345 182.279 16.0493 182.225H13.7072ZM18.2663 185.594L15.7112 181.429H17.4814L20.1951 185.594H18.2663Z" fill="url(#paint10_linear_22_141)"/>
<path d="M26.2155 185.72C24.7668 185.72 23.6437 185.421 22.8755 184.831C22.4732 184.512 22.158 184.116 21.9534 183.674C21.7488 183.231 21.6601 182.754 21.694 182.277C21.6625 181.819 21.7349 181.36 21.907 180.927C22.079 180.494 22.3473 180.096 22.696 179.756C23.0748 179.444 23.5216 179.204 24.009 179.05C24.4964 178.896 25.0142 178.832 25.5308 178.86C26.0148 178.833 26.5001 178.89 26.9588 179.029C27.4174 179.169 27.8402 179.387 28.2028 179.671C28.8291 180.209 29.1464 180.998 29.1464 182.026C29.1477 182.309 29.131 182.593 29.0963 182.874H23.101V181.864H27.5808C27.6118 181.618 27.5803 181.369 27.4886 181.135C27.3968 180.901 27.2471 180.688 27.0503 180.511C26.8536 180.335 26.6147 180.199 26.3512 180.114C26.0876 180.03 25.8059 179.998 25.5266 180.021C25.2182 180.006 24.9097 180.049 24.6216 180.147C24.3336 180.246 24.0728 180.398 23.8566 180.593C23.43 181.046 23.2163 181.626 23.2596 182.214C23.2365 182.543 23.2999 182.871 23.4448 183.174C23.5897 183.477 23.8121 183.747 24.0946 183.961C24.7713 184.395 25.5983 184.606 26.4326 184.558C26.7827 184.559 27.1325 184.543 27.4806 184.511C27.8229 184.481 28.1694 184.437 28.5243 184.385L28.7331 185.543C28.2761 185.615 27.8146 185.663 27.3511 185.686C26.9086 185.708 26.537 185.72 26.2155 185.72Z" fill="url(#paint11_linear_22_141)"/>
<path d="M33.86 185.719C33.1285 185.759 32.4027 185.583 31.7976 185.218C31.556 185.053 31.3634 184.838 31.2361 184.593C31.1089 184.348 31.0508 184.079 31.0669 183.81C31.0552 183.487 31.1425 183.167 31.3196 182.884C31.4967 182.601 31.7571 182.366 32.0731 182.203C32.9443 181.784 33.9304 181.589 34.9205 181.639C35.3755 181.636 35.8302 181.661 36.2815 181.713C36.6436 181.752 37.0003 181.824 37.3462 181.926L36.9955 182.818C36.6486 182.757 36.2968 182.72 35.9434 182.708C35.601 182.708 35.2503 182.708 34.8912 182.708C33.4133 182.708 32.6743 183.057 32.6743 183.755C32.6673 183.886 32.6986 184.017 32.7651 184.135C32.8315 184.253 32.9311 184.354 33.0542 184.429C33.3789 184.603 33.7563 184.686 34.1356 184.665C34.5899 184.677 35.0421 184.606 35.4632 184.455C35.7799 184.338 36.0563 184.15 36.2648 183.909C36.4313 183.713 36.5234 183.476 36.5279 183.231V182.494L37.0247 184.189H36.3525L36.6239 183.99C36.6383 184.335 36.5174 184.674 36.2815 184.949C36.0326 185.217 35.7003 185.416 35.3255 185.52C34.8532 185.659 34.3577 185.726 33.86 185.719ZM36.866 185.656L36.7408 183.699L36.5153 183.15V181.44C36.5279 181.245 36.4787 181.051 36.3732 180.88C36.2678 180.709 36.1102 180.567 35.9183 180.47C35.3651 180.233 34.7544 180.119 34.1397 180.139L32.0982 180.094L32.261 178.922L33.9769 178.941C35.3839 178.941 36.4318 179.191 37.1124 179.648C37.4545 179.881 37.7269 180.184 37.9059 180.531C38.085 180.878 38.1651 181.258 38.1394 181.639V184.396L39.584 184.532V185.594L36.866 185.656Z" fill="url(#paint12_linear_22_141)"/>
<path d="M40.7196 177.4V176.239H43.3707V177.4H40.7196ZM46.0219 185.719C45.0366 185.719 44.3227 185.509 43.8843 185.096C43.4459 184.684 43.2246 184.013 43.2246 183.099V176.239H44.928V183.036C44.9177 183.325 44.9614 183.614 45.0575 183.891C45.0971 183.999 45.1623 184.098 45.2487 184.182C45.3351 184.266 45.4407 184.333 45.5585 184.378C45.9097 184.496 46.2851 184.549 46.6607 184.532C47.2373 184.516 47.8094 184.437 48.3641 184.297L48.5561 185.458C48.1437 185.547 47.7254 185.613 47.3036 185.657C46.8781 185.699 46.4501 185.72 46.0219 185.719Z" fill="url(#paint13_linear_22_141)"/>
<path d="M60.4925 185.594V176.748H62.1625V185.594H60.4925ZM60.4925 177.923V176.74H68.0535V177.923H60.4925ZM60.4925 181.753V180.566H66.5922V181.753H60.4925ZM60.4925 185.594V184.41H68.0535V185.594H60.4925Z" fill="url(#paint14_linear_22_141)"/>
<path d="M73.0009 185.719C72.3621 185.719 71.811 185.719 71.3518 185.675C70.9314 185.649 70.5131 185.601 70.0993 185.531L70.2913 184.333C70.855 184.4 71.3518 184.451 71.7818 184.484C72.2118 184.517 72.6168 184.532 73.0051 184.532C73.6393 184.56 74.2744 184.494 74.8839 184.337C75.045 184.303 75.1891 184.223 75.294 184.11C75.3988 183.997 75.4586 183.856 75.4642 183.71C75.4716 183.627 75.457 183.543 75.4215 183.466C75.386 183.389 75.3306 183.319 75.2596 183.264C75.0709 183.148 74.8557 183.07 74.6292 183.036L72.6711 182.667C72.0149 182.566 71.3861 182.358 70.8174 182.052C70.6226 181.925 70.4666 181.758 70.3638 181.565C70.261 181.372 70.2145 181.159 70.2287 180.946C70.2095 180.619 70.3014 180.295 70.4927 180.016C70.6839 179.736 70.9657 179.513 71.3017 179.376C72.0142 179.051 73.1665 178.889 74.7586 178.889C75.1761 178.889 75.5519 178.889 75.9109 178.915C76.27 178.941 76.6332 178.967 77.0048 179.014L76.8294 180.161C76.4119 180.128 75.9944 180.105 75.6813 180.091C75.3682 180.076 75.0258 180.091 74.7085 180.091C74.0057 180.062 73.302 180.127 72.621 180.282C72.2035 180.408 71.978 180.614 71.978 180.902C71.9715 180.987 71.9934 181.071 72.0409 181.145C72.0884 181.219 72.1594 181.279 72.2452 181.318C72.5023 181.427 72.7747 181.505 73.0552 181.55L74.6292 181.849C75.3291 181.947 75.9977 182.174 76.5914 182.516C76.7985 182.659 76.9633 182.845 77.0716 183.057C77.1799 183.269 77.2286 183.5 77.2135 183.732C77.2337 184.049 77.1498 184.364 76.9721 184.639C76.7943 184.914 76.5302 185.138 76.2115 185.284C75.5491 185.574 74.4789 185.719 73.0009 185.719Z" fill="url(#paint15_linear_22_141)"/>
<path d="M79.0422 180.142V178.985H86.7493V180.142H79.0422ZM81.1756 182.476V176.987H82.8791V182.476H81.1756ZM84.8413 185.719C83.5512 185.719 82.616 185.509 82.0399 185.096C81.4637 184.683 81.1756 184.013 81.1756 183.098V181.993H82.8791V183.051C82.8576 183.262 82.8912 183.475 82.9773 183.673C83.0634 183.871 83.1998 184.049 83.3759 184.193C83.8557 184.472 84.4272 184.602 85 184.562C85.2783 184.562 85.5566 184.551 85.835 184.529C86.1133 184.506 86.4557 184.477 86.862 184.44L87.0541 185.597C86.6825 185.649 86.3151 185.686 85.9602 185.712C85.6053 185.738 85.2421 185.719 84.8413 185.719Z" fill="url(#paint16_linear_22_141)"/>
<path d="M91.68 185.719C90.9485 185.759 90.2227 185.583 89.6176 185.218C89.376 185.053 89.1834 184.838 89.0562 184.593C88.9289 184.348 88.8708 184.079 88.8869 183.81C88.8743 183.487 88.9613 183.167 89.1384 182.884C89.3156 182.601 89.5764 182.365 89.8931 182.203C90.7643 181.784 91.7504 181.589 92.7405 181.639C93.1955 181.636 93.6503 181.661 94.1015 181.713C94.4637 181.752 94.8203 181.824 95.1662 181.926L94.8155 182.818C94.4686 182.757 94.1168 182.72 93.7634 182.708C93.4168 182.708 93.0661 182.708 92.7113 182.708C91.2333 182.708 90.4943 183.057 90.4943 183.755C90.4873 183.886 90.5186 184.017 90.5851 184.135C90.6516 184.253 90.7511 184.354 90.8742 184.429C91.1989 184.603 91.5763 184.686 91.9556 184.665C92.4099 184.677 92.8621 184.606 93.2832 184.455C93.5995 184.339 93.8748 184.151 94.0807 183.909C94.2502 183.715 94.344 183.477 94.3479 183.231V182.494L94.8447 184.189H94.1725L94.4439 183.99C94.4583 184.335 94.3374 184.674 94.1015 184.949C93.8518 185.218 93.5179 185.417 93.1413 185.52C92.6706 185.659 92.1764 185.727 91.68 185.719ZM94.686 185.656L94.5733 183.699L94.3562 183.15V181.44C94.3688 181.245 94.3196 181.051 94.2141 180.88C94.1086 180.709 93.9511 180.567 93.7592 180.47C93.206 180.233 92.5953 180.119 91.9806 180.139L89.939 180.094L90.1019 178.922L91.8178 178.941C93.2248 178.941 94.2727 179.191 94.9532 179.648C95.2954 179.881 95.5678 180.184 95.7468 180.531C95.9258 180.878 96.006 181.258 95.9803 181.639V184.396L97.4249 184.532V185.594L94.686 185.656Z" fill="url(#paint17_linear_22_141)"/>
<path d="M98.3141 180.142V178.985H106.046V180.142H98.3141ZM100.452 182.476V176.987H102.155V182.476H100.452ZM104.113 185.719C102.823 185.719 101.888 185.509 101.316 185.096C100.744 184.683 100.452 184.013 100.452 183.098V181.993H102.155V183.051C102.133 183.262 102.166 183.474 102.252 183.672C102.337 183.87 102.472 184.048 102.648 184.193C103.128 184.471 103.699 184.601 104.272 184.562C104.55 184.562 104.829 184.551 105.107 184.529C105.385 184.506 105.728 184.477 106.134 184.44L106.33 185.597C105.954 185.649 105.587 185.686 105.232 185.712C104.877 185.738 104.514 185.719 104.113 185.719Z" fill="url(#paint18_linear_22_141)"/>
<path d="M112.948 185.72C111.495 185.72 110.376 185.421 109.608 184.831C109.205 184.512 108.889 184.116 108.683 183.674C108.478 183.232 108.389 182.754 108.422 182.277C108.39 181.819 108.463 181.36 108.635 180.927C108.807 180.494 109.075 180.096 109.424 179.756C109.803 179.445 110.25 179.205 110.737 179.051C111.224 178.897 111.742 178.832 112.259 178.86C112.743 178.833 113.228 178.89 113.687 179.029C114.145 179.169 114.568 179.387 114.931 179.671C115.561 180.209 115.874 180.998 115.874 182.026C115.876 182.309 115.859 182.593 115.824 182.874H109.829V181.864H114.313C114.331 181.615 114.292 181.366 114.198 181.131C114.104 180.896 113.957 180.68 113.766 180.497C113.563 180.332 113.324 180.205 113.065 180.124C112.805 180.042 112.53 180.007 112.255 180.021C111.946 180.006 111.638 180.049 111.35 180.148C111.062 180.246 110.801 180.398 110.585 180.593C110.16 181.047 109.946 181.626 109.988 182.214C109.965 182.543 110.029 182.871 110.174 183.174C110.319 183.477 110.541 183.746 110.823 183.961C111.501 184.394 112.329 184.605 113.165 184.558C113.513 184.559 113.862 184.543 114.208 184.511C114.551 184.481 114.897 184.437 115.252 184.385L115.461 185.543C115.004 185.615 114.543 185.663 114.079 185.686C113.636 185.708 113.269 185.72 112.948 185.72Z" fill="url(#paint19_linear_22_141)"/>
<path d="M109.002 50.3669V94.4092C107.892 94.4645 106.806 94.5271 105.754 94.6082V51.9039L94.1475 45.1293V96.0678C89.9276 96.8189 85.8021 97.9362 81.8311 99.4035V45.1293L91.9305 39.7627L109.002 50.3669Z" fill="url(#paint20_linear_22_141)"/>
<path d="M46.1555 45.1293V100.786C42.0696 99.2628 37.8624 98.0075 33.5678 97.0298V44.9045L21.957 51.6791V94.9141C20.8047 94.7556 19.8027 94.6377 19.0011 94.5455V50.3669L36.0603 39.7627L46.1555 45.1293Z" fill="url(#paint21_linear_22_141)"/>
<path d="M80.7999 32.6453V99.8089C79.8271 100.2 78.917 100.594 78.0527 100.999V33.3603L66.5672 26.5931V109.425C65.6937 110.444 64.9907 111.569 64.4797 112.765C63.4175 111.397 62.2035 110.127 60.8558 108.972V26.5931L49.3494 33.3603V102.061C48.6981 101.781 48.0384 101.504 47.3788 101.243V31.9229L63.1479 22.992V14.9274C63.1401 14.8344 63.1541 14.7409 63.1891 14.6529C63.2241 14.5649 63.2792 14.4842 63.3511 14.4159C63.423 14.3475 63.5101 14.293 63.607 14.2557C63.7038 14.2185 63.8083 14.1992 63.914 14.1992C64.0196 14.1992 64.1242 14.2185 64.221 14.2557C64.3179 14.293 64.4049 14.3475 64.4768 14.4159C64.5487 14.4842 64.6039 14.5649 64.6389 14.6529C64.6739 14.7409 64.6879 14.8344 64.6801 14.9274V23.0105L80.7999 32.6453Z" fill="url(#paint22_linear_22_141)"/>
<path d="M118.313 103.646C118.313 103.646 73.8568 102.621 64.5465 131.518C64.5465 131.518 60.5719 106.108 9.27328 103.646C9.27328 103.646 -16.4825 56.5258 17.853 32.6525C17.3019 33.1353 -8.67518 56.3046 16.8176 94.3242C16.8176 94.3242 17.6526 94.3869 19.0804 94.5454C19.8862 94.6375 20.8882 94.7554 22.0405 94.9139C25.9472 95.4464 29.821 96.1525 33.6471 97.0296C37.9428 98.0019 42.1515 99.2523 46.239 100.771C46.6565 100.926 47.074 101.08 47.4623 101.243C48.1219 101.504 48.7774 101.781 49.4287 102.061C53.6914 103.904 57.6911 106.185 60.9184 108.972C62.2686 110.126 63.4841 111.396 64.5465 112.765C65.0581 111.569 65.7611 110.445 66.634 109.425C68.5462 107.081 72.024 103.867 78.1237 100.999C78.9879 100.594 79.8981 100.199 80.8709 99.8088L81.9146 99.4033C85.8816 97.9367 90.0028 96.8194 94.2184 96.0676C98.0479 95.3662 101.923 94.8738 105.821 94.5933C106.877 94.5122 107.958 94.4495 109.069 94.3942C109.72 94.3611 110.376 94.3316 111.044 94.3095C111.044 94.3095 135.935 59.4744 109.887 32.6304C110.284 32.8663 144.102 52.5045 118.313 103.646Z" fill="url(#paint23_linear_22_141)"/>
<defs>
<linearGradient id="paint0_linear_22_141" x1="11.8534" y1="159.39" x2="28.6871" y2="159.39" gradientUnits="userSpaceOnUse">
<stop stop-color="#D7AB32"/>
<stop offset="1" stop-color="#A67E2D"/>
</linearGradient>
<linearGradient id="paint1_linear_22_141" x1="48.5687" y1="159.229" x2="72.8632" y2="159.229" gradientUnits="userSpaceOnUse">
<stop stop-color="#D7AB32"/>
<stop offset="1" stop-color="#A67E2D"/>
</linearGradient>
<linearGradient id="paint2_linear_22_141" x1="92.5568" y1="159.443" x2="116.15" y2="159.443" gradientUnits="userSpaceOnUse">
<stop stop-color="#D7AB32"/>
<stop offset="1" stop-color="#A67E2D"/>
</linearGradient>
<linearGradient id="paint3_linear_22_141" x1="102.673" y1="24.5705" x2="113.482" y2="24.5705" gradientUnits="userSpaceOnUse">
<stop stop-color="#D7AB32"/>
<stop offset="1" stop-color="#A67E2D"/>
</linearGradient>
<linearGradient id="paint4_linear_22_141" x1="91.6675" y1="15.4919" x2="102.481" y2="15.4919" gradientUnits="userSpaceOnUse">
<stop stop-color="#D7AB32"/>
<stop offset="1" stop-color="#A67E2D"/>
</linearGradient>
<linearGradient id="paint5_linear_22_141" x1="77.1551" y1="8.32977" x2="87.9684" y2="8.32977" gradientUnits="userSpaceOnUse">
<stop stop-color="#D7AB32"/>
<stop offset="1" stop-color="#A67E2D"/>
</linearGradient>
<linearGradient id="paint6_linear_22_141" x1="14.5213" y1="24.5705" x2="25.3305" y2="24.5705" gradientUnits="userSpaceOnUse">
<stop stop-color="#D7AB32"/>
<stop offset="1" stop-color="#A67E2D"/>
</linearGradient>
<linearGradient id="paint7_linear_22_141" x1="25.5225" y1="15.4919" x2="36.3317" y2="15.4919" gradientUnits="userSpaceOnUse">
<stop stop-color="#D7AB32"/>
<stop offset="1" stop-color="#A67E2D"/>
</linearGradient>
<linearGradient id="paint8_linear_22_141" x1="40.0349" y1="8.32977" x2="50.844" y2="8.32977" gradientUnits="userSpaceOnUse">
<stop stop-color="#D7AB32"/>
<stop offset="1" stop-color="#A67E2D"/>
</linearGradient>
<linearGradient id="paint9_linear_22_141" x1="59.1106" y1="4.53729" x2="69.9239" y2="4.53729" gradientUnits="userSpaceOnUse">
<stop stop-color="#D7AB32"/>
<stop offset="1" stop-color="#A67E2D"/>
</linearGradient>
<linearGradient id="paint10_linear_22_141" x1="12.1457" y1="181.167" x2="20.1951" y2="181.167" gradientUnits="userSpaceOnUse">
<stop stop-color="#D7AB32"/>
<stop offset="1" stop-color="#A67E2D"/>
</linearGradient>
<linearGradient id="paint11_linear_22_141" x1="21.6731" y1="182.288" x2="29.1255" y2="182.288" gradientUnits="userSpaceOnUse">
<stop stop-color="#D7AB32"/>
<stop offset="1" stop-color="#A67E2D"/>
</linearGradient>
<linearGradient id="paint12_linear_22_141" x1="31.0669" y1="182.321" x2="39.5965" y2="182.321" gradientUnits="userSpaceOnUse">
<stop stop-color="#D7AB32"/>
<stop offset="1" stop-color="#A67E2D"/>
</linearGradient>
<linearGradient id="paint13_linear_22_141" x1="40.7196" y1="180.979" x2="48.5561" y2="180.979" gradientUnits="userSpaceOnUse">
<stop stop-color="#D7AB32"/>
<stop offset="1" stop-color="#A67E2D"/>
</linearGradient>
<linearGradient id="paint14_linear_22_141" x1="60.4925" y1="181.167" x2="68.041" y2="181.167" gradientUnits="userSpaceOnUse">
<stop stop-color="#D7AB32"/>
<stop offset="1" stop-color="#A67E2D"/>
</linearGradient>
<linearGradient id="paint15_linear_22_141" x1="70.0951" y1="182.288" x2="77.2261" y2="182.288" gradientUnits="userSpaceOnUse">
<stop stop-color="#D7AB32"/>
<stop offset="1" stop-color="#A67E2D"/>
</linearGradient>
<linearGradient id="paint16_linear_22_141" x1="79.0422" y1="181.355" x2="87.0708" y2="181.355" gradientUnits="userSpaceOnUse">
<stop stop-color="#D7AB32"/>
<stop offset="1" stop-color="#A67E2D"/>
</linearGradient>
<linearGradient id="paint17_linear_22_141" x1="88.8869" y1="182.321" x2="97.4165" y2="182.321" gradientUnits="userSpaceOnUse">
<stop stop-color="#D7AB32"/>
<stop offset="1" stop-color="#A67E2D"/>
</linearGradient>
<linearGradient id="paint18_linear_22_141" x1="98.3141" y1="181.355" x2="106.347" y2="181.355" gradientUnits="userSpaceOnUse">
<stop stop-color="#D7AB32"/>
<stop offset="1" stop-color="#A67E2D"/>
</linearGradient>
<linearGradient id="paint19_linear_22_141" x1="108.401" y1="182.288" x2="115.853" y2="182.288" gradientUnits="userSpaceOnUse">
<stop stop-color="#D7AB32"/>
<stop offset="1" stop-color="#A67E2D"/>
</linearGradient>
<linearGradient id="paint20_linear_22_141" x1="95.3874" y1="69.5149" x2="95.2703" y2="47.1342" gradientUnits="userSpaceOnUse">
<stop stop-color="#D7AB32"/>
<stop offset="1" stop-color="#A67E2D"/>
</linearGradient>
<linearGradient id="paint21_linear_22_141" x1="32.8163" y1="70.7644" x2="33.7083" y2="47.8875" gradientUnits="userSpaceOnUse">
<stop stop-color="#D7AB32"/>
<stop offset="1" stop-color="#A67E2D"/>
</linearGradient>
<linearGradient id="paint22_linear_22_141" x1="64.0998" y1="65.818" x2="68.1443" y2="37.3631" gradientUnits="userSpaceOnUse">
<stop stop-color="#D7AB32"/>
<stop offset="1" stop-color="#A67E2D"/>
</linearGradient>
<linearGradient id="paint23_linear_22_141" x1="41.3876" y1="111.334" x2="87.6502" y2="5.46226" gradientUnits="userSpaceOnUse">
<stop stop-color="#D7AB32"/>
<stop offset="1" stop-color="#A67E2D"/>
</linearGradient>
</defs>
</svg>
