<svg width="119" height="62" viewBox="0 0 119 62" fill="none" xmlns="http://www.w3.org/2000/svg">
<path d="M70.012 21.9098C70.1111 21.8014 70.192 21.6777 70.2514 21.5433C70.3437 21.3493 70.4483 21.2515 70.5654 21.2515C70.7303 21.2515 70.8332 21.3867 70.8686 21.6589L71.1932 24.1979L71.2287 24.5022C71.2337 24.5361 71.2308 24.5708 71.2201 24.6034C71.2094 24.636 71.1913 24.6657 71.1672 24.69C71.1431 24.7144 71.1137 24.7328 71.0812 24.7437C71.0488 24.7546 71.0143 24.7578 70.9804 24.753C70.932 24.7574 70.8833 24.7517 70.8373 24.7364C70.7912 24.7211 70.7488 24.6965 70.7126 24.6641C70.5888 24.4849 70.4836 24.2935 70.3986 24.0929C70.0938 23.4946 69.6429 22.9835 69.088 22.6073C68.5619 22.1964 67.9187 21.9651 67.2523 21.9472C66.7092 21.9283 66.1783 22.1121 65.7625 22.4631C65.5722 22.6199 65.4197 22.8179 65.3165 23.0422C65.2133 23.2666 65.162 23.5114 65.1666 23.7584C65.172 23.9747 65.2243 24.1871 65.3199 24.381C65.4155 24.5749 65.552 24.7456 65.7199 24.8811C66.0888 25.2156 66.7983 25.5312 67.8482 25.8277C69.4977 26.3022 70.6144 26.8822 71.1985 27.5678C71.7564 28.2051 72.0645 29.0239 72.0658 29.872C72.0921 30.6471 71.8688 31.4101 71.4291 32.048C71.026 32.6132 70.5064 33.0847 69.9056 33.4305C69.3144 33.7674 68.5577 33.9358 67.6354 33.9358C67.0868 33.9319 66.5412 33.8553 66.0126 33.708C65.4127 33.5417 64.8315 33.314 64.278 33.0284C64.1411 33.1931 64.0347 33.3811 63.9641 33.5835C63.8648 33.8362 63.7424 33.9625 63.5952 33.9625C63.448 33.9625 63.3487 33.797 63.3185 33.4625L63.0507 30.1033C63.0383 29.9556 63.0312 29.8631 63.0312 29.8257C63.0266 29.7885 63.0307 29.7508 63.0432 29.7155C63.0556 29.6802 63.076 29.6483 63.1028 29.6222C63.1297 29.5962 63.1621 29.5768 63.1977 29.5654C63.2333 29.5541 63.271 29.5513 63.3079 29.557C63.4444 29.557 63.5721 29.7118 63.6963 30.0196C64.0358 30.892 64.5584 31.6809 65.2287 32.3327C65.5222 32.6288 65.8717 32.8631 66.2566 33.022C66.6416 33.1808 67.0542 33.261 67.4705 33.2579C67.7916 33.2722 68.1124 33.2223 68.4141 33.1112C68.7158 33 68.9925 32.8297 69.2281 32.6102C69.4354 32.4251 69.602 32.1986 69.7171 31.9453C69.8322 31.6919 69.8934 31.4172 69.8967 31.1388C69.9007 30.8761 69.8475 30.6157 69.7409 30.3757C69.6343 30.1357 69.4769 29.9219 69.2795 29.7492C68.8657 29.3744 68.1243 29.0132 67.0554 28.6656C66.2492 28.4276 65.4713 28.1018 64.7356 27.6942C64.2262 27.3835 63.8062 26.9451 63.5172 26.422C63.2251 25.9231 63.068 25.3564 63.0613 24.778C63.0573 24.3089 63.1555 23.8447 63.3492 23.4178C63.5428 22.9909 63.8271 22.6116 64.1823 22.3066C64.9295 21.6281 65.9464 21.2888 67.2328 21.2888C67.9328 21.2888 68.8592 21.4958 70.012 21.9098Z" fill="url(#paint0_linear_22_114)"/>
<path d="M88.7906 21.1589H89.4202C90.2302 22.924 91.3765 25.7008 92.8592 29.4894C93.5414 31.2319 94.0114 32.2876 94.2692 32.6565C94.5282 33.0266 94.9378 33.2508 95.4983 33.3326C95.6827 33.3575 95.775 33.4376 95.775 33.5728C95.775 33.7632 95.6544 33.8593 95.4203 33.8593C95.2902 33.8593 94.955 33.8379 94.4146 33.7952C93.775 33.7395 93.2364 33.7116 92.7989 33.7116C92.3614 33.7116 91.8081 33.7365 91.1388 33.7863C90.628 33.8219 90.2928 33.8415 90.1332 33.8415C89.8495 33.8415 89.7076 33.7507 89.7076 33.5728C89.7076 33.4376 89.8069 33.3593 90.0038 33.3415C90.7593 33.2721 91.1388 32.975 91.1388 32.4519C91.1388 32.2028 91.0271 31.7402 90.8072 31.0872C90.6046 30.4729 90.3677 29.8706 90.0978 29.283C89.6969 29.283 89.3883 29.2741 89.1631 29.2741C87.9216 29.2741 86.9585 29.2741 86.2686 29.283C85.7377 30.7385 85.4723 31.7028 85.4723 32.1761C85.4664 32.3305 85.4998 32.4839 85.5693 32.6217C85.6388 32.7596 85.7421 32.8775 85.8695 32.9643C86.1224 33.1466 86.4183 33.2594 86.728 33.2917C86.9621 33.3166 87.0827 33.4109 87.0827 33.5782C87.0827 33.7454 86.9567 33.8272 86.7049 33.8272C86.6073 33.8272 86.3502 33.813 85.9298 33.781C85.3895 33.7383 84.9958 33.7169 84.7486 33.7169C84.2859 33.7151 83.8236 33.746 83.3652 33.8095C83.2739 33.8258 83.1814 33.8353 83.0886 33.8379C82.8598 33.8379 82.7463 33.7454 82.7463 33.5586C82.745 33.4948 82.7667 33.4327 82.8075 33.3836C82.8482 33.3346 82.9052 33.302 82.968 33.2917C83.2772 33.2137 83.5707 33.0824 83.8352 32.9038C84.1186 32.6557 84.3496 32.3533 84.5145 32.0142C84.8583 31.3383 85.15 30.637 85.3871 29.9164C86.145 27.7564 87.2795 24.8373 88.7906 21.1589ZM88.1468 24.3901L86.5506 28.5268L89.814 28.4806C89.6366 27.9966 89.3777 27.333 89.0212 26.4896C88.6239 25.5774 88.3324 24.8776 88.1468 24.3901Z" fill="url(#paint1_linear_22_114)"/>
<path d="M110.63 27.3152C111.471 26.5962 112.252 25.8095 112.965 24.963C113.844 23.9524 114.354 23.3445 114.493 23.1392C114.607 22.9988 114.679 22.8293 114.701 22.6499C114.701 22.335 114.414 22.1162 113.842 22.0005C113.596 21.9525 113.474 21.8511 113.474 21.6963C113.474 21.5183 113.589 21.4187 113.828 21.4187C113.908 21.4187 114.006 21.4187 114.142 21.4365C114.819 21.5152 115.5 21.5491 116.182 21.5379C116.409 21.5379 116.769 21.5213 117.262 21.4881C117.728 21.4596 118.042 21.4454 118.202 21.4454C118.468 21.4454 118.599 21.5379 118.599 21.723C118.599 21.908 118.473 21.9792 118.221 22.0112C117.854 22.0518 117.495 22.1496 117.157 22.3012C116.696 22.5253 116.264 22.8069 115.873 23.1392C115.322 23.5916 114.804 24.084 114.325 24.6125L112.509 26.6212L113.128 26.6017C113.75 26.5788 114.366 26.7363 114.901 27.0554C115.338 27.3164 115.69 27.699 115.914 28.1567C116.208 28.8946 116.437 29.6566 116.599 30.4342C116.725 31.0087 116.888 31.5745 117.086 32.1281C117.216 32.4507 117.424 32.7357 117.691 32.9572C117.942 33.179 118.257 33.3138 118.59 33.3415C118.867 33.3664 119.005 33.4429 119.005 33.5728C119.005 33.7507 118.872 33.8504 118.608 33.8504C118.535 33.8504 118.431 33.8504 118.285 33.8326C117.734 33.7697 117.18 33.7388 116.625 33.7401C116.018 33.7394 115.41 33.7762 114.807 33.8504C114.6 33.5262 114.44 33.1739 114.332 32.8042C114.223 32.4341 114.058 31.5445 113.837 30.1353C113.672 29.0926 113.443 28.391 113.151 28.0304C112.859 27.6698 112.531 27.4889 112.168 27.4877C111.73 27.4877 111.221 27.7689 110.636 28.3276L110.618 30.7224C110.618 31.8232 110.677 32.51 110.795 32.7828C110.918 33.055 111.253 33.2241 111.801 33.2935C112.09 33.329 112.234 33.4109 112.234 33.5337C112.234 33.749 112.106 33.8575 111.847 33.8575C111.723 33.8575 111.542 33.845 111.303 33.8201C110.567 33.747 109.827 33.7132 109.087 33.7187C108.452 33.7232 107.817 33.7636 107.186 33.8397C106.941 33.8628 106.762 33.8753 106.654 33.8753C106.612 33.8819 106.57 33.8788 106.529 33.866C106.489 33.8532 106.452 33.8312 106.421 33.8017C106.391 33.7722 106.368 33.736 106.354 33.696C106.34 33.656 106.335 33.6132 106.34 33.571C106.336 33.5308 106.343 33.4901 106.361 33.4539C106.379 33.4176 106.407 33.3873 106.441 33.3664C106.592 33.3112 106.751 33.28 106.911 33.2739C107.144 33.261 107.367 33.1793 107.553 33.039C107.709 32.8697 107.809 32.6558 107.839 32.427C107.928 31.7378 107.974 31.0437 107.977 30.3488C108.012 29.2516 108.029 28.0358 108.029 26.7013C108.029 25.3669 108.012 24.4179 107.977 23.8545C107.969 23.4373 107.899 23.0236 107.77 22.6268C107.711 22.4274 107.589 22.2521 107.424 22.1268C107.178 22.029 106.918 21.9743 106.654 21.9649C106.457 21.9543 106.358 21.8671 106.358 21.7069C106.358 21.5148 106.512 21.4187 106.819 21.4187C107.041 21.4187 107.374 21.4383 107.816 21.4756C108.364 21.5231 108.814 21.5474 109.164 21.5486C109.379 21.5486 109.991 21.5237 110.999 21.4739C111.296 21.4614 111.523 21.4561 111.682 21.4561C111.919 21.4561 112.037 21.5397 112.037 21.7069C112.037 21.8849 111.916 21.9774 111.682 22.0023C111.271 22.0403 111.003 22.1387 110.879 22.2977C110.738 22.5201 110.668 22.7799 110.677 23.0432C110.659 23.3705 110.643 24.7945 110.63 27.3152Z" fill="url(#paint2_linear_22_114)"/>
<path d="M44.8361 9.44263L45.3646 11.0778H47.0779L45.6927 12.0884L46.2212 13.7217L44.8361 12.7111L43.4509 13.7217L43.9794 12.0884L42.5943 11.0778H44.3058L44.8361 9.44263Z" fill="url(#paint3_linear_22_114)"/>
<path d="M40.2709 5.16528L40.8012 6.79864H42.5144L41.1275 7.80926L41.6578 9.44262L40.2709 8.43378L38.8857 9.44262L39.416 7.80926L38.0291 6.79864H39.7423L40.2709 5.16528Z" fill="url(#paint4_linear_22_114)"/>
<path d="M34.2514 1.78809L34.7799 3.42144H36.4932L35.108 4.43206L35.6365 6.06542L34.2514 5.05658L32.8662 6.06542L33.3947 4.43206L32.0096 3.42144H33.7211L34.2514 1.78809Z" fill="url(#paint5_linear_22_114)"/>
<path d="M8.26665 9.44263L7.73635 11.0778H6.02307L7.41001 12.0884L6.87971 13.7217L8.26665 12.7111L9.65181 13.7217L9.12329 12.0884L10.5085 11.0778H8.79517L8.26665 9.44263Z" fill="url(#paint6_linear_22_114)"/>
<path d="M12.8301 5.16528L12.3015 6.79864H10.5883L11.9734 7.80926L11.4449 9.44262L12.8301 8.43378L14.2152 9.44262L13.6867 7.80926L15.0719 6.79864H13.3586L12.8301 5.16528Z" fill="url(#paint7_linear_22_114)"/>
<path d="M18.8496 1.78809L18.3211 3.42144H16.6078L17.9947 4.43206L17.4644 6.06542L18.8496 5.05658L20.2365 6.06542L19.7062 4.43206L21.0932 3.42144H19.3799L18.8496 1.78809Z" fill="url(#paint8_linear_22_114)"/>
<path d="M26.7651 0L27.2954 1.63514H29.0069L27.6217 2.64398L28.1502 4.27911L26.7651 3.2685L25.3799 4.27911L25.9084 2.64398L24.5233 1.63514H26.2365L26.7651 0Z" fill="url(#paint9_linear_22_114)"/>
<path d="M63.1926 43.5917V38.1846H64.09V43.5917H63.1926ZM64.0262 41.5314V40.809H65.2925C65.5791 40.8264 65.8625 40.7413 66.0924 40.5688C66.1883 40.4862 66.2639 40.3826 66.3134 40.2659C66.3629 40.1493 66.385 40.0228 66.3779 39.8962C66.3867 39.7608 66.3657 39.6251 66.3164 39.4987C66.267 39.3723 66.1905 39.2584 66.0924 39.1649C65.8676 38.9811 65.582 38.8889 65.2925 38.9069H64.051L63.9464 38.1846H65.2996C65.9345 38.1846 66.4252 38.3269 66.7717 38.6116C66.9458 38.7587 67.0834 38.9444 67.1736 39.1541C67.2638 39.3638 67.3041 39.5917 67.2913 39.8197C67.3046 40.0559 67.2648 40.292 67.1749 40.5107C67.0849 40.7294 66.9471 40.9249 66.7717 41.083C66.4252 41.3819 65.9345 41.5314 65.2996 41.5314H64.0262ZM66.4773 43.5917L65.1063 41.051H66.0552L67.5113 43.5917H66.4773Z" fill="url(#paint10_linear_22_114)"/>
<path d="M70.7427 43.6612C69.9647 43.6612 69.3635 43.4833 68.939 43.1274C68.5145 42.7716 68.3029 42.2526 68.3041 41.5706C68.3041 40.9122 68.4814 40.4004 68.8361 40.0351C69.1908 39.6685 69.7016 39.4871 70.3561 39.4871C70.9751 39.4871 71.4522 39.6508 71.7891 39.9817C72.1261 40.3126 72.2964 40.7895 72.2964 41.4176C72.297 41.5905 72.2881 41.7634 72.2698 41.9353H69.072V41.3197H71.4752C71.4853 41.168 71.4646 41.0158 71.4143 40.8723C71.364 40.7289 71.2851 40.5972 71.1826 40.4852C71.0739 40.3845 70.9462 40.3067 70.8069 40.2566C70.6677 40.2064 70.5198 40.185 70.372 40.1934C70.2049 40.1845 70.0379 40.2116 69.8821 40.273C69.7264 40.3344 69.5856 40.4286 69.4693 40.5493C69.2406 40.826 69.1258 41.1798 69.1483 41.5385C69.1347 41.7386 69.1676 41.9391 69.2442 42.1243C69.3208 42.3095 69.4391 42.4744 69.5899 42.6061C69.8843 42.8493 70.3035 42.9679 70.8474 42.962C71.034 42.9624 71.2204 42.9529 71.406 42.9335C71.5834 42.9139 71.7767 42.889 71.9665 42.8552L72.0782 43.5669C71.8334 43.6091 71.5865 43.6382 71.3386 43.6541C71.1205 43.6541 70.9148 43.6612 70.7427 43.6612Z" fill="url(#paint11_linear_22_114)"/>
<path d="M74.845 43.6612C74.4527 43.6856 74.0634 43.5785 73.7383 43.3569C73.6087 43.256 73.5053 43.1252 73.4371 42.9755C73.3688 42.8259 73.3377 42.6619 73.3463 42.4975C73.3395 42.3 73.3862 42.1044 73.4815 41.9314C73.5768 41.7585 73.717 41.6147 73.8873 41.5154C74.242 41.2876 74.751 41.1738 75.4143 41.1738C75.6586 41.1717 75.9028 41.1865 76.145 41.2182C76.3391 41.2428 76.5304 41.2863 76.7161 41.3481L76.5264 41.8961C76.3404 41.859 76.1518 41.837 75.9624 41.8303C75.785 41.8303 75.5899 41.8196 75.3966 41.8196C74.6032 41.8196 74.2071 42.0325 74.2083 42.4584C74.2046 42.5386 74.2213 42.6185 74.257 42.6905C74.2927 42.7624 74.3462 42.824 74.4122 42.8694C74.5864 42.9756 74.7888 43.0259 74.9922 43.0135C75.235 43.0205 75.4765 42.9769 75.7016 42.8854C75.8712 42.8149 76.0193 42.7007 76.1308 42.5545C76.2204 42.4347 76.2701 42.2896 76.2727 42.1399V41.6986L76.5405 42.7324H76.177L76.3242 42.6114C76.3334 42.8206 76.2708 43.0266 76.1468 43.195C76.013 43.3615 75.8336 43.4852 75.6307 43.5508C75.3769 43.6319 75.1112 43.6692 74.845 43.6612ZM76.4572 43.622L76.3969 42.4281L76.2763 42.0936V41.0528C76.2834 40.9338 76.2571 40.8151 76.2003 40.7104C76.1436 40.6057 76.0587 40.519 75.9553 40.4603C75.6581 40.3166 75.3308 40.247 75.0011 40.2574L73.9068 40.2307L73.9919 39.519L74.9142 39.5315C75.6697 39.541 76.2308 39.6845 76.5973 39.9621C76.7804 40.1047 76.9261 40.2898 77.0219 40.5015C77.1177 40.7133 77.1607 40.9452 77.1471 41.1773V42.8569L77.9222 42.9423V43.5918L76.4572 43.622Z" fill="url(#paint12_linear_22_114)"/>
<path d="M78.5252 38.5887V37.877H79.944V38.5887H78.5252ZM81.3629 43.6613C80.8308 43.6613 80.4513 43.5332 80.2154 43.2806C79.9795 43.0279 79.8607 42.6205 79.8607 42.0635V37.8805H80.7741V42.0262C80.7689 42.202 80.7923 42.3774 80.8432 42.5457C80.865 42.6114 80.9002 42.6718 80.9466 42.723C80.993 42.7742 81.0497 42.815 81.1128 42.8429C81.3012 42.9169 81.5032 42.9496 81.7052 42.9389C82.0144 42.9276 82.3211 42.8786 82.6186 42.793L82.7215 43.5047C82.5011 43.558 82.2778 43.5984 82.0528 43.6257C81.8261 43.6506 81.5981 43.6625 81.37 43.6613H81.3629Z" fill="url(#paint13_linear_22_114)"/>
<path d="M89.1347 43.5917V38.1846H90.0304V43.5917H89.1347ZM89.1347 38.9141V38.1917H93.1856V38.9141H89.1347ZM89.1347 41.2485V40.5261H92.4034V41.2485H89.1347ZM89.1347 43.5917V42.8622H93.1856V43.5917H89.1347Z" fill="url(#paint14_linear_22_114)"/>
<path d="M95.8477 43.6611C95.5036 43.6611 95.2074 43.6611 94.9609 43.6344C94.7346 43.6189 94.5095 43.5892 94.287 43.5454L94.3898 42.8159C94.6913 42.8568 94.9574 42.8871 95.1897 42.9067C95.4221 42.9262 95.6402 42.9387 95.8459 42.9387C96.1861 42.9549 96.5266 42.914 96.8533 42.8177C96.9401 42.7974 97.0177 42.7488 97.0742 42.6796C97.1306 42.6105 97.1627 42.5245 97.1655 42.4352C97.1693 42.3846 97.1613 42.3339 97.1422 42.287C97.1231 42.24 97.0935 42.1982 97.0555 42.1647C96.9548 42.0928 96.8389 42.0453 96.7168 42.0259L95.665 41.7893C95.3136 41.7272 94.9767 41.5999 94.6718 41.4139C94.5661 41.3363 94.4817 41.2331 94.4265 41.1139C94.3713 40.9948 94.3471 40.8635 94.3561 40.7324C94.3461 40.5336 94.3953 40.3363 94.4977 40.1658C94.6001 39.9952 94.7509 39.8592 94.9308 39.7752C95.3139 39.5759 95.9323 39.4769 96.7859 39.478C97.0076 39.478 97.2134 39.478 97.4049 39.4941C97.5965 39.5101 97.7915 39.5261 97.992 39.5545L97.898 40.2538C97.6656 40.2324 97.4599 40.22 97.2808 40.2111C97.1016 40.2022 96.926 40.2004 96.7593 40.2004C96.3856 40.1846 96.0116 40.2235 95.6491 40.3161C95.4185 40.3944 95.3032 40.5189 95.3032 40.695C95.3003 40.7464 95.3121 40.7974 95.3373 40.8422C95.3624 40.887 95.3998 40.9236 95.4451 40.9477C95.5837 41.0141 95.7304 41.0619 95.8814 41.09L96.7256 41.268C97.1012 41.3279 97.4601 41.4661 97.7791 41.6736C97.8902 41.7612 97.9785 41.8744 98.0366 42.0036C98.0947 42.1328 98.1207 42.2741 98.1126 42.4156C98.1242 42.6078 98.0801 42.7992 97.9857 42.9669C97.8913 43.1345 97.7506 43.2712 97.5805 43.3604C97.2169 43.5614 96.6405 43.6611 95.8477 43.6611Z" fill="url(#paint15_linear_22_114)"/>
<path d="M99.088 40.261V39.5493H103.222V40.261H99.088ZM100.236 41.6844V38.3394H101.149V41.6844H100.236ZM102.201 43.6629C101.507 43.6629 101.007 43.5348 100.698 43.2821C100.39 43.0295 100.236 42.622 100.236 42.0651V41.3801H101.149V42.0278C101.138 42.1562 101.155 42.2856 101.201 42.4062C101.247 42.5267 101.319 42.6352 101.413 42.7234C101.591 42.867 101.881 42.9393 102.286 42.9405C102.429 42.9405 102.581 42.9334 102.743 42.9192C102.903 42.9049 103.087 42.8871 103.295 42.864L103.398 43.5757C103.197 43.606 103.001 43.6291 102.809 43.6451C102.617 43.6611 102.415 43.6611 102.201 43.6611V43.6629Z" fill="url(#paint16_linear_22_114)"/>
<path d="M105.872 43.6612C105.479 43.686 105.089 43.5789 104.763 43.3569C104.634 43.2557 104.531 43.1248 104.463 42.9752C104.395 42.8257 104.363 42.6618 104.372 42.4975C104.364 42.301 104.41 42.1061 104.503 41.9333C104.597 41.7605 104.735 41.6161 104.904 41.5154C105.258 41.2876 105.767 41.1738 106.431 41.1738C106.675 41.1717 106.919 41.1865 107.161 41.2182C107.356 41.2427 107.547 41.2862 107.732 41.3481L107.543 41.8961C107.357 41.8588 107.168 41.8368 106.979 41.8303C106.794 41.8232 106.606 41.8196 106.415 41.8196C105.622 41.8196 105.226 42.0325 105.225 42.4584C105.221 42.5386 105.238 42.6185 105.273 42.6905C105.309 42.7624 105.362 42.824 105.429 42.8694C105.603 42.9756 105.805 43.0259 106.009 43.0135C106.251 43.0208 106.493 42.9772 106.718 42.8854C106.888 42.8154 107.036 42.7012 107.147 42.5545C107.237 42.4347 107.286 42.2896 107.289 42.1399V41.6986L107.557 42.7324H107.202L107.348 42.6114C107.357 42.8206 107.294 43.0266 107.17 43.195C107.037 43.3615 106.858 43.4852 106.656 43.5508C106.403 43.6316 106.138 43.6689 105.872 43.6612ZM107.482 43.622L107.422 42.4281L107.301 42.0936V41.0528C107.309 40.9338 107.282 40.8151 107.226 40.7104C107.169 40.6057 107.084 40.519 106.98 40.4603C106.683 40.3164 106.356 40.2468 106.026 40.2574L104.932 40.2307L105.019 39.519L105.939 39.5315C106.695 39.5404 107.257 39.6845 107.622 39.9621C107.806 40.1041 107.952 40.2892 108.048 40.501C108.144 40.7129 108.187 40.9451 108.172 41.1773V42.8569L108.947 42.9423V43.5918L107.482 43.622Z" fill="url(#paint17_linear_22_114)"/>
<path d="M109.43 40.261V39.5493H113.568V40.261H109.43ZM110.577 41.6844V38.3394H111.491V41.6844H110.577ZM112.542 43.6629C111.849 43.6629 111.349 43.5348 111.04 43.2821C110.732 43.0295 110.577 42.622 110.577 42.0651V41.3801H111.491V42.0278C111.479 42.1562 111.497 42.2856 111.543 42.4062C111.589 42.5267 111.661 42.6352 111.755 42.7234C111.932 42.867 112.223 42.9393 112.628 42.9405C112.772 42.9405 112.924 42.9334 113.085 42.9192C113.247 42.9049 113.429 42.8871 113.637 42.864L113.74 43.5757C113.539 43.606 113.342 43.6291 113.151 43.6451C112.959 43.6611 112.757 43.6611 112.542 43.6611V43.6629Z" fill="url(#paint18_linear_22_114)"/>
<path d="M117.281 43.6612C116.502 43.6612 115.901 43.4833 115.478 43.1274C115.054 42.7716 114.843 42.2526 114.843 41.5706C114.843 40.9122 115.02 40.4004 115.375 40.0351C115.73 39.6685 116.24 39.4871 116.895 39.4871C117.514 39.4871 117.991 39.6508 118.328 39.9817C118.665 40.3126 118.835 40.7895 118.835 41.4176C118.836 41.5905 118.827 41.7634 118.808 41.9353H115.611V41.3197H118.014C118.024 41.168 118.003 41.0158 117.953 40.8723C117.903 40.7289 117.824 40.5972 117.721 40.4852C117.613 40.3845 117.485 40.3067 117.346 40.2566C117.206 40.2064 117.058 40.185 116.911 40.1934C116.744 40.1845 116.577 40.2116 116.421 40.273C116.265 40.3344 116.124 40.4286 116.008 40.5493C115.779 40.826 115.664 41.1798 115.687 41.5385C115.673 41.7386 115.706 41.9391 115.783 42.1243C115.859 42.3095 115.978 42.4744 116.129 42.6061C116.423 42.8493 116.842 42.9679 117.386 42.962C117.573 42.9624 117.759 42.9529 117.945 42.9335C118.122 42.9139 118.315 42.889 118.505 42.8552L118.617 43.5669C118.372 43.6091 118.125 43.6382 117.877 43.6541C117.652 43.6541 117.453 43.6612 117.281 43.6612Z" fill="url(#paint19_linear_22_114)"/>
<path d="M45.2262 23.7443V44.5064C44.7669 44.5331 44.3164 44.5634 43.8783 44.6007V24.4702L39.0648 21.2675V45.2875C37.3158 45.6416 35.6061 46.1685 33.9605 46.8604V21.2747L38.1497 18.7463L45.2262 23.7443Z" fill="url(#paint20_linear_22_114)"/>
<path d="M19.1547 21.2747V47.5063C17.4592 46.7899 15.7134 46.2 13.9315 45.7413V21.1733L9.1162 24.3759V44.7449C8.63734 44.6702 8.22941 44.6132 7.88889 44.567V23.7496L14.9672 18.7517L19.1547 21.2747Z" fill="url(#paint21_linear_22_114)"/>
<path d="M33.5206 15.3905V47.0613C33.1174 47.2452 32.7379 47.4326 32.382 47.6236V15.7268L27.6146 12.5384V51.586C27.2508 52.0667 26.9569 52.5969 26.742 53.1606C26.3007 52.519 25.7969 51.923 25.238 51.3814V12.5384L20.4724 15.7268V48.1093C20.2028 47.9759 19.9297 47.846 19.6548 47.7232V15.0489L26.1975 10.8392V7.0387C26.1942 6.99476 26.2 6.95061 26.2146 6.90901C26.2291 6.86742 26.252 6.82928 26.2819 6.79698C26.3118 6.76468 26.348 6.73891 26.3882 6.72129C26.4285 6.70367 26.4719 6.69458 26.5159 6.69458C26.5598 6.69458 26.6033 6.70367 26.6435 6.72129C26.6838 6.73891 26.72 6.76468 26.7499 6.79698C26.7798 6.82928 26.8027 6.86742 26.8172 6.90901C26.8317 6.95061 26.8375 6.99476 26.8342 7.0387V10.8534L33.5206 15.3905Z" fill="url(#paint22_linear_22_114)"/>
<path d="M49.082 48.8619C49.082 48.8619 30.6368 48.3779 26.7775 61.9999C26.7775 61.9999 25.128 50.022 3.84688 48.8619C3.84688 48.8619 -6.83893 26.6478 7.40645 15.394C7.17766 15.6218 -3.58973 26.5447 6.97725 44.4671C6.97725 44.4671 7.31778 44.4956 7.91547 44.5703C8.2489 44.613 8.66392 44.6699 9.14279 44.7482C10.3949 44.9422 12.0905 45.2571 13.9598 45.7446C15.7411 46.2022 17.4863 46.7909 19.1812 47.5061C19.3586 47.5773 19.52 47.652 19.6885 47.7285C19.9634 47.8513 20.2365 47.9811 20.5061 48.1146C22.2797 48.9864 23.9327 50.0575 25.2735 51.3724C25.8318 51.9145 26.3356 52.5105 26.7775 53.1517C26.9912 52.5877 27.2845 52.0574 27.6483 51.577C28.4411 50.4721 29.8848 48.958 32.4157 47.6057C32.7704 47.4136 33.1517 47.2267 33.5543 47.0435C33.6962 46.9794 33.8399 46.9154 33.9888 46.8531C35.6337 46.1609 37.3429 45.6341 39.0914 45.2802C40.6809 44.9516 42.289 44.7216 43.9067 44.5917C44.343 44.5543 44.7935 44.524 45.2546 44.4974C45.5224 44.4831 45.7867 44.4689 46.0722 44.4582C46.0722 44.4582 56.3998 28.0357 45.5934 15.3816C45.7583 15.4937 59.782 24.7512 49.082 48.8619Z" fill="url(#paint23_linear_22_114)"/>
<defs>
<linearGradient id="paint0_linear_22_114" x1="63.0347" y1="27.607" x2="72.0693" y2="27.607" gradientUnits="userSpaceOnUse">
<stop stop-color="#D7AB32"/>
<stop offset="1" stop-color="#A67E2D"/>
</linearGradient>
<linearGradient id="paint1_linear_22_114" x1="82.7356" y1="27.5091" x2="95.775" y2="27.5091" gradientUnits="userSpaceOnUse">
<stop stop-color="#D7AB32"/>
<stop offset="1" stop-color="#A67E2D"/>
</linearGradient>
<linearGradient id="paint2_linear_22_114" x1="106.34" y1="27.639" x2="119" y2="27.639" gradientUnits="userSpaceOnUse">
<stop stop-color="#D7AB32"/>
<stop offset="1" stop-color="#A67E2D"/>
</linearGradient>
<linearGradient id="paint3_linear_22_114" x1="42.5943" y1="11.5831" x2="47.0779" y2="11.5831" gradientUnits="userSpaceOnUse">
<stop stop-color="#D7AB32"/>
<stop offset="1" stop-color="#A67E2D"/>
</linearGradient>
<linearGradient id="paint4_linear_22_114" x1="38.0291" y1="7.30395" x2="42.5144" y2="7.30395" gradientUnits="userSpaceOnUse">
<stop stop-color="#D7AB32"/>
<stop offset="1" stop-color="#A67E2D"/>
</linearGradient>
<linearGradient id="paint5_linear_22_114" x1="32.0096" y1="3.92675" x2="36.4932" y2="3.92675" gradientUnits="userSpaceOnUse">
<stop stop-color="#D7AB32"/>
<stop offset="1" stop-color="#A67E2D"/>
</linearGradient>
<linearGradient id="paint6_linear_22_114" x1="6.02307" y1="11.5831" x2="10.5085" y2="11.5831" gradientUnits="userSpaceOnUse">
<stop stop-color="#D7AB32"/>
<stop offset="1" stop-color="#A67E2D"/>
</linearGradient>
<linearGradient id="paint7_linear_22_114" x1="10.5883" y1="7.30395" x2="15.0719" y2="7.30395" gradientUnits="userSpaceOnUse">
<stop stop-color="#D7AB32"/>
<stop offset="1" stop-color="#A67E2D"/>
</linearGradient>
<linearGradient id="paint8_linear_22_114" x1="16.6078" y1="3.92675" x2="21.0932" y2="3.92675" gradientUnits="userSpaceOnUse">
<stop stop-color="#D7AB32"/>
<stop offset="1" stop-color="#A67E2D"/>
</linearGradient>
<linearGradient id="paint9_linear_22_114" x1="24.5233" y1="2.13867" x2="29.0069" y2="2.13867" gradientUnits="userSpaceOnUse">
<stop stop-color="#D7AB32"/>
<stop offset="1" stop-color="#A67E2D"/>
</linearGradient>
<linearGradient id="paint10_linear_22_114" x1="63.1926" y1="40.8855" x2="67.5113" y2="40.8855" gradientUnits="userSpaceOnUse">
<stop stop-color="#D7AB32"/>
<stop offset="1" stop-color="#A67E2D"/>
</linearGradient>
<linearGradient id="paint11_linear_22_114" x1="68.3041" y1="41.5688" x2="72.3035" y2="41.5688" gradientUnits="userSpaceOnUse">
<stop stop-color="#D7AB32"/>
<stop offset="1" stop-color="#A67E2D"/>
</linearGradient>
<linearGradient id="paint12_linear_22_114" x1="73.3463" y1="41.5883" x2="77.9222" y2="41.5883" gradientUnits="userSpaceOnUse">
<stop stop-color="#D7AB32"/>
<stop offset="1" stop-color="#A67E2D"/>
</linearGradient>
<linearGradient id="paint13_linear_22_114" x1="78.5252" y1="40.77" x2="82.7303" y2="40.77" gradientUnits="userSpaceOnUse">
<stop stop-color="#D7AB32"/>
<stop offset="1" stop-color="#A67E2D"/>
</linearGradient>
<linearGradient id="paint14_linear_22_114" x1="89.1347" y1="40.8855" x2="93.1856" y2="40.8855" gradientUnits="userSpaceOnUse">
<stop stop-color="#D7AB32"/>
<stop offset="1" stop-color="#A67E2D"/>
</linearGradient>
<linearGradient id="paint15_linear_22_114" x1="94.2887" y1="41.5687" x2="98.1143" y2="41.5687" gradientUnits="userSpaceOnUse">
<stop stop-color="#D7AB32"/>
<stop offset="1" stop-color="#A67E2D"/>
</linearGradient>
<linearGradient id="paint16_linear_22_114" x1="99.088" y1="40.9993" x2="103.398" y2="40.9993" gradientUnits="userSpaceOnUse">
<stop stop-color="#D7AB32"/>
<stop offset="1" stop-color="#A67E2D"/>
</linearGradient>
<linearGradient id="paint17_linear_22_114" x1="104.372" y1="41.5883" x2="108.947" y2="41.5883" gradientUnits="userSpaceOnUse">
<stop stop-color="#D7AB32"/>
<stop offset="1" stop-color="#A67E2D"/>
</linearGradient>
<linearGradient id="paint18_linear_22_114" x1="109.43" y1="40.9993" x2="113.74" y2="40.9993" gradientUnits="userSpaceOnUse">
<stop stop-color="#D7AB32"/>
<stop offset="1" stop-color="#A67E2D"/>
</linearGradient>
<linearGradient id="paint19_linear_22_114" x1="114.843" y1="41.5688" x2="118.842" y2="41.5688" gradientUnits="userSpaceOnUse">
<stop stop-color="#D7AB32"/>
<stop offset="1" stop-color="#A67E2D"/>
</linearGradient>
<linearGradient id="paint20_linear_22_114" x1="39.5721" y1="32.7704" x2="39.5096" y2="22.2195" gradientUnits="userSpaceOnUse">
<stop stop-color="#D7AB32"/>
<stop offset="1" stop-color="#A67E2D"/>
</linearGradient>
<linearGradient id="paint21_linear_22_114" x1="13.614" y1="33.3612" x2="14.0906" y2="22.5808" gradientUnits="userSpaceOnUse">
<stop stop-color="#D7AB32"/>
<stop offset="1" stop-color="#A67E2D"/>
</linearGradient>
<linearGradient id="paint22_linear_22_114" x1="26.5912" y1="31.0266" x2="28.7471" y2="17.6915" gradientUnits="userSpaceOnUse">
<stop stop-color="#D7AB32"/>
<stop offset="1" stop-color="#A67E2D"/>
</linearGradient>
<linearGradient id="paint23_linear_22_114" x1="17.17" y1="52.4862" x2="40.8479" y2="4.80361" gradientUnits="userSpaceOnUse">
<stop stop-color="#D7AB32"/>
<stop offset="1" stop-color="#A67E2D"/>
</linearGradient>
</defs>
</svg>
