<svg width="18" height="16" viewBox="0 0 18 16" fill="none" xmlns="http://www.w3.org/2000/svg">
<path d="M15.6665 0.499878H2.33317C1.89114 0.499878 1.46722 0.675473 1.15466 0.988033C0.842099 1.30059 0.666504 1.72452 0.666504 2.16654V13.8332C0.666504 14.2752 0.842099 14.6992 1.15466 15.0117C1.46722 15.3243 1.89114 15.4999 2.33317 15.4999H15.6665C16.1085 15.4999 16.5325 15.3243 16.845 15.0117C17.1576 14.6992 17.3332 14.2752 17.3332 13.8332V2.16654C17.3332 1.72452 17.1576 1.30059 16.845 0.988033C16.5325 0.675473 16.1085 0.499878 15.6665 0.499878ZM8.1665 12.1665H3.1665V10.4999H8.1665V12.1665ZM14.8332 8.83321H3.1665V7.16654H14.8332V8.83321ZM14.8332 5.49988H3.1665V3.83321H14.8332V5.49988Z" fill="#858585"/>
</svg>
