<svg width="20" height="20" viewBox="0 0 20 20" fill="none" xmlns="http://www.w3.org/2000/svg">
<path d="M10 4.58319C10.7735 4.58319 11.5154 4.89048 12.0624 5.43746C12.6094 5.98444 12.9167 6.72631 12.9167 7.49986C12.9167 8.27341 12.6094 9.01527 12.0624 9.56225C11.5154 10.1092 10.7735 10.4165 10 10.4165C9.22645 10.4165 8.48459 10.1092 7.93761 9.56225C7.39062 9.01527 7.08333 8.27341 7.08333 7.49986C7.08333 6.72631 7.39062 5.98444 7.93761 5.43746C8.48459 4.89048 9.22645 4.58319 10 4.58319ZM4.16667 6.66652C4.63333 6.66652 5.06667 6.79152 5.44167 7.01652C5.31667 8.20819 5.66667 9.39152 6.38333 10.3165C5.96667 11.1165 5.13333 11.6665 4.16667 11.6665C3.50363 11.6665 2.86774 11.4031 2.3989 10.9343C1.93006 10.4655 1.66667 9.82957 1.66667 9.16652C1.66667 8.50348 1.93006 7.8676 2.3989 7.39876C2.86774 6.92992 3.50363 6.66652 4.16667 6.66652ZM15.8333 6.66652C16.4964 6.66652 17.1323 6.92992 17.6011 7.39876C18.0699 7.8676 18.3333 8.50348 18.3333 9.16652C18.3333 9.82957 18.0699 10.4655 17.6011 10.9343C17.1323 11.4031 16.4964 11.6665 15.8333 11.6665C14.8667 11.6665 14.0333 11.1165 13.6167 10.3165C14.3432 9.37854 14.6805 8.19669 14.5583 7.01652C14.9333 6.79152 15.3667 6.66652 15.8333 6.66652ZM4.58333 15.2082C4.58333 13.4832 7.00833 12.0832 10 12.0832C12.9917 12.0832 15.4167 13.4832 15.4167 15.2082V16.6665H4.58333V15.2082ZM0 16.6665V15.4165C0 14.2582 1.575 13.2832 3.70833 12.9999C3.21667 13.5665 2.91667 14.3499 2.91667 15.2082V16.6665H0ZM20 16.6665H17.0833V15.2082C17.0833 14.3499 16.7833 13.5665 16.2917 12.9999C18.425 13.2832 20 14.2582 20 15.4165V16.6665Z" fill="#858585"/>
</svg>
