<svg width="16" height="20" viewBox="0 0 16 20" fill="none" xmlns="http://www.w3.org/2000/svg">
<path d="M8.00018 -0.00012207L10.0864 1.07988L12.4089 1.43238L13.4614 3.53238L15.1327 5.18238L14.7502 7.49988L15.1327 9.81738L13.4614 11.4674L12.4089 13.5674L10.0864 13.9199L8.00018 14.9999L5.91393 13.9199L3.59143 13.5674L2.53893 11.4674L0.867676 9.81738L1.25018 7.49988L0.867676 5.18238L2.53893 3.53238L3.59143 1.43238L5.91393 1.07988L8.00018 -0.00012207Z" fill="#858585"/>
<path d="M3 14.7424V19.9999L8 18.7499L13 19.9999V14.7424L10.4775 15.1249L8 16.4074L5.5225 15.1249L3 14.7424Z" fill="#858585"/>
</svg>
